<?xml version="1.0" encoding="UTF-8"?>
<svg id="b" data-name="Layer 2" xmlns="http://www.w3.org/2000/svg" viewBox="0 0 323.64 38.12">
  <defs>
    <style>
      .d {
        fill: #ddd;
      }
    </style>
  </defs>
  <g id="c" data-name="Layer 1">
    <g>
      <path class="d" d="M3.8,29.27c-1.26-.5-2.23-1.07-2.9-1.69l1.73-3.71c.74.58,1.56,1.04,2.45,1.39.89.35,1.94.52,3.17.52.7,0,1.36-.13,2-.4.64-.26.95-.64.95-1.12,0-.43-.2-.75-.61-.95-.41-.2-.88-.38-1.4-.52-.53-.14-.89-.24-1.08-.29-2.11-.55-3.72-1.22-4.82-2.02-1.1-.79-1.66-1.98-1.66-3.56,0-1.18.34-2.18,1.01-3.02.67-.84,1.54-1.48,2.61-1.93,1.07-.44,2.19-.67,3.37-.67,1.39,0,2.6.15,3.62.45,1.02.3,2.05.75,3.08,1.35l-1.62,3.6c-1.7-.84-3.37-1.26-5-1.26-.58,0-1.08.12-1.51.36-.43.24-.65.54-.65.9,0,.46.26.79.77,1.01.52.22,1.31.44,2.39.68,1.9.46,3.44,1.11,4.63,1.96,1.19.85,1.78,2.11,1.78,3.76,0,1.39-.4,2.53-1.21,3.4-.8.88-1.8,1.51-2.99,1.91s-2.41.59-3.65.59c-1.7,0-3.19-.25-4.45-.76Z"/>
      <path class="d" d="M24.1,28.78c-1.24-.83-2.19-1.96-2.86-3.38-.67-1.43-1.01-3.01-1.01-4.73s.34-3.31,1.01-4.73c.67-1.43,1.63-2.56,2.86-3.38,1.24-.83,2.66-1.24,4.27-1.24,1.1,0,2.16.22,3.17.65,1.01.43,1.82,1.07,2.45,1.91v-2.2h4.72v18h-4.72v-2.16c-.6.82-1.41,1.44-2.43,1.87-1.02.43-2.08.65-3.19.65-1.61,0-3.03-.41-4.27-1.24ZM32.67,24.19c.8-.91,1.21-2.09,1.21-3.53s-.4-2.59-1.21-3.51c-.8-.92-1.83-1.39-3.08-1.39s-2.36.46-3.2,1.39c-.84.92-1.26,2.09-1.26,3.51s.42,2.59,1.26,3.51c.84.92,1.91,1.39,3.2,1.39s2.27-.46,3.08-1.37Z"/>
      <path class="d" d="M48.89,11.66v2.41c1.34-1.85,3.24-2.77,5.69-2.77,2.28,0,3.92.68,4.91,2.05,1,1.37,1.49,3.35,1.49,5.94v10.37h-4.82v-9.76c0-1.39-.23-2.41-.68-3.06-.46-.65-1.27-.97-2.45-.97s-2.17.44-2.92,1.31c-.74.88-1.12,2-1.12,3.37v9.11h-4.82V11.66h4.72Z"/>
      <path class="d" d="M69.53,28.78c-1.24-.83-2.19-1.96-2.86-3.38-.67-1.43-1.01-3.01-1.01-4.73s.34-3.31,1.03-4.73c.68-1.43,1.65-2.56,2.9-3.38,1.25-.83,2.68-1.24,4.28-1.24,1.06,0,2.06.2,3.02.61.96.41,1.76,1,2.41,1.76v-7.7h4.82v23.69h-4.57v-2.16c-.62.82-1.45,1.44-2.48,1.87-1.03.43-2.12.65-3.28.65-1.61,0-3.03-.41-4.27-1.24ZM78.1,24.19c.8-.91,1.21-2.09,1.21-3.53s-.4-2.59-1.21-3.51c-.8-.92-1.83-1.39-3.08-1.39s-2.36.46-3.2,1.39c-.84.92-1.26,2.09-1.26,3.51s.42,2.59,1.26,3.51c.84.92,1.91,1.39,3.2,1.39s2.27-.46,3.08-1.37Z"/>
      <path class="d" d="M94.01,28.91c-1.5-.74-2.7-1.82-3.6-3.24-.9-1.42-1.35-3.08-1.35-5,0-1.7.41-3.27,1.22-4.7.82-1.43,1.94-2.56,3.37-3.4,1.43-.84,3.01-1.26,4.73-1.26,1.61,0,3.08.42,4.41,1.26,1.33.84,2.39,1.97,3.17,3.38.78,1.42,1.17,2.96,1.17,4.64,0,.43-.01.8-.04,1.12-.02.31-.05.52-.07.61h-13.07c.29,1.2.88,2.11,1.78,2.74.9.62,1.97.94,3.22.94.86,0,1.72-.12,2.57-.36.85-.24,1.61-.59,2.29-1.04l1.8,3.46c-1.99,1.32-4.22,1.98-6.7,1.98-1.78,0-3.41-.37-4.91-1.12ZM101.12,16.38c-.82-.7-1.78-1.04-2.88-1.04s-1.99.35-2.79,1.04c-.8.7-1.33,1.61-1.57,2.74h8.71c-.17-1.13-.66-2.04-1.48-2.74Z"/>
      <path class="d" d="M116.51,28.91c-1.5-.74-2.7-1.82-3.6-3.24-.9-1.42-1.35-3.08-1.35-5,0-1.7.41-3.27,1.22-4.7.82-1.43,1.94-2.56,3.37-3.4,1.43-.84,3.01-1.26,4.73-1.26,1.61,0,3.08.42,4.41,1.26,1.33.84,2.39,1.97,3.17,3.38.78,1.42,1.17,2.96,1.17,4.64,0,.43-.01.8-.04,1.12-.02.31-.05.52-.07.61h-13.07c.29,1.2.88,2.11,1.78,2.74.9.62,1.97.94,3.22.94.86,0,1.72-.12,2.57-.36.85-.24,1.61-.59,2.29-1.04l1.8,3.46c-1.99,1.32-4.22,1.98-6.7,1.98-1.78,0-3.41-.37-4.91-1.12ZM123.62,16.38c-.82-.7-1.78-1.04-2.88-1.04s-1.99.35-2.79,1.04c-.8.7-1.33,1.61-1.57,2.74h8.71c-.17-1.13-.66-2.04-1.48-2.74Z"/>
      <path class="d" d="M139.18,11.66v2.16c.72-.84,1.58-1.47,2.57-1.89,1-.42,2.06-.63,3.19-.63,1.61,0,3.03.41,4.27,1.24,1.24.83,2.19,1.95,2.86,3.37.67,1.42,1.01,2.99,1.01,4.72s-.34,3.31-1.03,4.75c-.68,1.44-1.65,2.57-2.9,3.4-1.25.83-2.68,1.24-4.28,1.24-1.06,0-2.07-.21-3.04-.63-.97-.42-1.77-1.01-2.39-1.78v7.24h-4.82V11.66h4.57ZM146.9,24.17c.83-.92,1.24-2.09,1.24-3.51s-.41-2.59-1.24-3.51-1.9-1.39-3.22-1.39c-1.22,0-2.24.46-3.06,1.37-.82.91-1.22,2.09-1.22,3.53s.4,2.59,1.21,3.51c.8.92,1.83,1.39,3.08,1.39,1.32,0,2.39-.46,3.22-1.39Z"/>
      <path class="d" d="M162.23,28.78c-1.48-.83-2.64-1.96-3.49-3.4-.85-1.44-1.28-3.01-1.28-4.72s.43-3.28,1.28-4.72c.85-1.44,2.02-2.57,3.49-3.4,1.48-.83,3.09-1.24,4.84-1.24,2.42,0,4.57.77,6.44,2.3l-2.92,3.38c-.89-.82-2.03-1.22-3.42-1.22s-2.54.46-3.46,1.39c-.91.92-1.37,2.09-1.37,3.51s.45,2.62,1.35,3.53c.9.91,2.11,1.37,3.62,1.37.74,0,1.46-.13,2.16-.4.7-.26,1.28-.62,1.76-1.08l2.56,3.6c-.86.74-1.88,1.32-3.04,1.73-1.16.41-2.39.61-3.69.61-1.75,0-3.37-.41-4.84-1.24Z"/>
      <path class="d" d="M182.84,11.66v3.46c.34-.96,1.03-1.84,2.07-2.63,1.04-.79,2.45-1.19,4.23-1.19v5.26c-2.11,0-3.68.5-4.7,1.49-1.02,1-1.53,2.56-1.53,4.7v6.91h-4.82V11.66h4.75Z"/>
      <path class="d" d="M197.84,28.91c-1.5-.74-2.7-1.82-3.6-3.24-.9-1.42-1.35-3.08-1.35-5,0-1.7.41-3.27,1.22-4.7.82-1.43,1.94-2.56,3.37-3.4,1.43-.84,3.01-1.26,4.73-1.26,1.61,0,3.08.42,4.41,1.26,1.33.84,2.39,1.97,3.17,3.38.78,1.42,1.17,2.96,1.17,4.64,0,.43-.01.8-.04,1.12-.02.31-.05.52-.07.61h-13.07c.29,1.2.88,2.11,1.78,2.74.9.62,1.97.94,3.22.94.86,0,1.72-.12,2.57-.36.85-.24,1.61-.59,2.29-1.04l1.8,3.46c-1.99,1.32-4.22,1.98-6.7,1.98-1.78,0-3.41-.37-4.91-1.12ZM204.95,16.38c-.82-.7-1.78-1.04-2.88-1.04s-1.99.35-2.79,1.04c-.8.7-1.33,1.61-1.57,2.74h8.71c-.17-1.13-.66-2.04-1.48-2.74Z"/>
      <path class="d" d="M219.26,28.78c-1.24-.83-2.19-1.96-2.86-3.38-.67-1.43-1.01-3.01-1.01-4.73s.34-3.31,1.01-4.73c.67-1.43,1.63-2.56,2.86-3.38,1.24-.83,2.66-1.24,4.27-1.24,1.1,0,2.16.22,3.17.65,1.01.43,1.82,1.07,2.45,1.91v-2.2h4.72v18h-4.72v-2.16c-.6.82-1.41,1.44-2.43,1.87-1.02.43-2.08.65-3.19.65-1.61,0-3.03-.41-4.27-1.24ZM227.82,24.19c.8-.91,1.21-2.09,1.21-3.53s-.4-2.59-1.21-3.51c-.8-.92-1.83-1.39-3.08-1.39s-2.36.46-3.2,1.39c-.84.92-1.26,2.09-1.26,3.51s.42,2.59,1.26,3.51c.84.92,1.91,1.39,3.2,1.39s2.27-.46,3.08-1.37Z"/>
      <path class="d" d="M241.97,28.46c-.95-1.04-1.42-2.57-1.42-4.59v-8.32h-2.63v-3.89h2.63v-3.46l4.82-1.08v4.54h4.97v3.89h-4.97v8.24c0,.72.15,1.24.45,1.57.3.32.69.49,1.17.49s.94-.09,1.37-.27.74-.34.94-.49l1.37,3.56c-1.37.91-2.89,1.37-4.57,1.37-1.8,0-3.17-.52-4.12-1.57Z"/>
      <path class="d" d="M255.22,8.62c-.56-.56-.85-1.23-.85-2s.28-1.47.85-2.03c.56-.56,1.23-.85,2-.85s1.47.28,2.03.85c.56.56.85,1.24.85,2.03s-.28,1.43-.85,2c-.56.56-1.24.85-2.03.85s-1.43-.28-2-.85ZM259.67,11.66v18h-4.82V11.66h4.82Z"/>
      <path class="d" d="M268.38,11.66l3.35,9.25c.58,1.58,1.02,2.92,1.33,4,.07-.31.23-.83.47-1.55.24-.72.52-1.52.83-2.41l3.35-9.29h4.79l-7.09,18.04h-4.75l-7.09-18.04h4.82Z"/>
      <path class="d" d="M290.25,28.91c-1.5-.74-2.7-1.82-3.6-3.24-.9-1.42-1.35-3.08-1.35-5,0-1.7.41-3.27,1.22-4.7.82-1.43,1.94-2.56,3.37-3.4,1.43-.84,3.01-1.26,4.73-1.26,1.61,0,3.08.42,4.41,1.26,1.33.84,2.39,1.97,3.17,3.38.78,1.42,1.17,2.96,1.17,4.64,0,.43-.01.8-.04,1.12-.02.31-.05.52-.07.61h-13.07c.29,1.2.88,2.11,1.78,2.74.9.62,1.97.94,3.22.94.86,0,1.72-.12,2.57-.36.85-.24,1.61-.59,2.29-1.04l1.8,3.46c-1.99,1.32-4.22,1.98-6.7,1.98-1.78,0-3.41-.37-4.91-1.12ZM297.36,16.38c-.82-.7-1.78-1.04-2.88-1.04s-1.99.35-2.79,1.04c-.8.7-1.33,1.61-1.57,2.74h8.71c-.17-1.13-.66-2.04-1.48-2.74Z"/>
      <path class="d" d="M310.3,29.27c-1.26-.5-2.23-1.07-2.9-1.69l1.73-3.71c.74.58,1.56,1.04,2.45,1.39.89.35,1.94.52,3.17.52.7,0,1.36-.13,2-.4.64-.26.95-.64.95-1.12,0-.43-.2-.75-.61-.95-.41-.2-.88-.38-1.4-.52-.53-.14-.89-.24-1.08-.29-2.11-.55-3.72-1.22-4.82-2.02-1.1-.79-1.66-1.98-1.66-3.56,0-1.18.34-2.18,1.01-3.02.67-.84,1.54-1.48,2.61-1.93,1.07-.44,2.19-.67,3.37-.67,1.39,0,2.6.15,3.62.45,1.02.3,2.05.75,3.08,1.35l-1.62,3.6c-1.7-.84-3.37-1.26-5-1.26-.58,0-1.08.12-1.51.36-.43.24-.65.54-.65.9,0,.46.26.79.77,1.01.52.22,1.31.44,2.39.68,1.9.46,3.44,1.11,4.63,1.96,1.19.85,1.78,2.11,1.78,3.76,0,1.39-.4,2.53-1.21,3.4-.8.88-1.8,1.51-2.99,1.91s-2.41.59-3.65.59c-1.7,0-3.19-.25-4.45-.76Z"/>
    </g>
  </g>
</svg>