<?xml version="1.0" encoding="UTF-8"?>
<svg id="b" data-name="Layer 2" xmlns="http://www.w3.org/2000/svg" viewBox="0 0 1602.99 401.52">
  <defs>
    <style>
      .d {
        fill: #ddd;
      }
    </style>
  </defs>
  <g id="c" data-name="Layer 1">
    <g>
      <path class="d" d="M239.6,123.84c-63.07,0-101.53,200.38-171.53,200.38-4.62,0-7.69-.77-7.69-.77L0,258.06c61.92,0,100.76-197.3,166.92-197.3l72.69,63.07Z"/>
      <path class="d" d="M303.06,271.91l-22.69,45h-106.15L303.06,60.38l128.46,256.53h-106.15l-22.31-45Z"/>
      <path class="d" d="M668.04,324.21l-123.46-81.92v74.61h-101.53V60l123.46,82.3v-74.61h101.53v256.53Z"/>
      <path class="d" d="M793.03,67.69c72.69,0,124.61,55.77,124.61,124.61s-51.92,124.61-124.61,124.61h-101.92V67.69h101.92ZM784.19,223.83h5.77c16.54,0,29.61-11.92,29.61-31.15s-13.08-31.54-29.61-31.54h-5.77v62.69Z"/>
      <path class="d" d="M1133.01,316.91h-196.91V67.69h196.91v97.69h-95.38v20h95.38v15.38h-95.38v16.92h95.38v99.23Z"/>
      <path class="d" d="M1353,316.91h-196.91V67.69h196.91v97.69h-95.38v20h95.38v15.38h-95.38v16.92h95.38v99.23Z"/>
      <path class="d" d="M1497.22,266.14h-19.62v50.77h-101.53V67.69h120.76c55.38,0,100.38,44.61,100.38,100s-44.61,98.46-100,98.46ZM1470.3,191.53h2.69c17.31,0,26.92-9.23,26.92-23.84s-9.61-23.85-26.92-23.85h-2.69v47.69Z"/>
    </g>
  </g>
</svg>