<?xml version="1.0" encoding="UTF-8"?>
<svg id="b" data-name="Layer 2" xmlns="http://www.w3.org/2000/svg" viewBox="0 0 191.16 214.79">
  <defs>
    <style>
      .d {
        fill: none;
      }

      .e {
        fill: #ddd;
      }

      .f {
        fill: #23995b;
      }
    </style>
  </defs>
  <g id="c" data-name="Layer 1">
    <g>
      <path class="f" d="M148.38,116.98c-3.9-.09-7.6,0-11.26-.34-2.23-.21-3.71-1.9-4.8-3.87-7.22-12.95-14.47-25.89-21.71-38.83-2.8-5.01-5.64-10.01-8.38-15.06-.79-1.46-1.8-2.17-3.43-2.01-1.6.17-3.34.01-4.76.61-3.59,1.51-4.45,6.37-1.61,9.24,2.57,2.59,5.44,4.88,8.2,7.28,1.75,1.52,3.56,2.97,5.29,4.51,6.73,5.98,9.24,13.4,6.74,22.06-2.46,8.54-8.45,13.56-17.19,15.02-9.53,1.6-19.19-4.16-22.67-13.27-.16-.42-.33-.85-.59-1.48-2.07,2.33-4.03,4.53-5.98,6.73-1.41,1.6-2.82,3.2-4.23,4.79-1.39,1.57-3.13,2.54-5.22,2.54-3.55,0-7.11-.15-10.99-.24,13.63-14.8,27.09-29.43,40.65-44.15.64.61,1.26,1.2,2.01,1.92-.81.97-1.56,1.9-2.33,2.8-2.8,3.27-5.58,6.57-8.44,9.8-2.39,2.7-3.16,5.91-3.2,9.38-.15,11.25,9.98,19.99,20.99,18,7.09-1.28,11.92-5.48,14.08-12.33,2.26-7.18.4-13.52-5.05-18.62-4.43-4.14-9.16-7.96-13.7-11.98-2.96-2.62-3.89-5.97-2.78-9.71,1.05-3.53,3.57-5.66,7.19-6.4.54-.11,1.11-.13,1.66-.12,3.48.07,6.95.15,10.43.25,2.83.08,4.93,1.38,6.35,3.82,11.12,19.15,22.25,38.3,33.38,57.45.43.74.87,1.46,1.32,2.23Z"/>
      <g>
        <path class="d" d="M167.85,121.66c-56.59,88.28-189.3,6.36-135.75-83.79,56.59-88.28,189.3-6.36,135.75,83.79Z"/>
        <path class="e" d="M14.62,119.72c.07-.74.33-1.42.79-2.04.46-.62,1.07-1.12,1.83-1.51.76-.38,1.54-.58,2.34-.59s1.53.16,2.21.53,1.2.9,1.58,1.59c.29.53.45,1.07.49,1.62.04.55-.04,1.08-.25,1.58l3.64-1.83.96,1.75-10.58,5.33-.91-1.68,1-.5c-.55-.13-1.05-.37-1.5-.74-.45-.36-.83-.82-1.12-1.37-.38-.7-.53-1.41-.47-2.15ZM18.56,122.65c.67.18,1.37.1,2.07-.26.7-.35,1.16-.85,1.4-1.49s.19-1.28-.15-1.9c-.36-.66-.89-1.09-1.58-1.29s-1.39-.12-2.09.23c-.7.35-1.16.86-1.38,1.51-.22.66-.15,1.32.21,1.98.34.62.84,1.02,1.52,1.21Z"/>
        <path class="e" d="M21.93,131.88c-.13-.8-.05-1.57.26-2.32.31-.75.85-1.4,1.63-1.94.69-.48,1.45-.77,2.27-.85.83-.09,1.62.03,2.38.36.76.32,1.4.83,1.91,1.51.47.62.73,1.32.78,2.08.05.76-.09,1.5-.44,2.21-.35.71-.85,1.3-1.52,1.77-.16.11-.3.2-.42.27-.12.07-.2.11-.25.13l-4.04-5.41c-.47.51-.72,1.07-.72,1.69,0,.62.2,1.21.61,1.77.27.37.6.69.97.97.37.28.77.49,1.2.64l-.74,1.48c-.59-.21-1.13-.49-1.63-.85-.5-.36-.92-.78-1.27-1.25-.52-.69-.84-1.44-.98-2.24ZM29.37,131.18c.05-.59-.12-1.13-.49-1.63-.35-.46-.81-.76-1.41-.9-.59-.14-1.19-.08-1.79.18l2.92,3.91c.46-.44.72-.96.77-1.55Z"/>
        <path class="e" d="M29.27,141.2c-.23-.63-.34-1.17-.33-1.63l1.73-.56c.08,1.11.48,2.03,1.17,2.75.32.33.66.57,1.03.71.37.15.67.12.88-.07.19-.17.24-.39.18-.65-.07-.26-.18-.53-.33-.81-.15-.28-.25-.46-.3-.54-.33-.62-.58-1.15-.73-1.59-.16-.44-.2-.87-.14-1.3.06-.42.3-.82.71-1.2.41-.37.88-.58,1.41-.62.53-.04,1.05.06,1.56.29.51.23.96.54,1.33.93.43.45.76.9.99,1.35.23.45.41.97.54,1.56l-1.71.56c-.21-.86-.61-1.59-1.19-2.2-.24-.25-.51-.43-.8-.52-.29-.1-.52-.07-.69.08-.2.19-.26.41-.18.66.09.25.27.61.56,1.06.54.87.86,1.68.98,2.42.11.74-.14,1.39-.75,1.95-.48.44-1.01.66-1.59.67-.58,0-1.15-.13-1.7-.41-.55-.29-1.03-.64-1.45-1.08-.57-.59-.96-1.2-1.19-1.82Z"/>
        <path class="e" d="M43.55,142.94l-6.02,6.58-1.5-1.32,6.02-6.58,1.5,1.32ZM43.26,140.49c-.02-.33.09-.62.31-.86.23-.25.51-.38.85-.41.34-.02.63.08.88.3.25.22.39.5.41.84.02.34-.09.63-.31.88-.23.25-.51.38-.85.39-.34.01-.63-.09-.89-.31-.25-.22-.39-.5-.4-.82Z"/>
        <path class="e" d="M41.05,155.41c-.38-.54-.63-1.08-.75-1.62l1.38-.56c.09.44.29.86.58,1.27.3.41.64.75,1.03,1.04.75.54,1.48.74,2.2.58.72-.15,1.35-.61,1.91-1.36l.04-.06c-.42.22-.92.3-1.5.24-.59-.05-1.18-.3-1.78-.74-.65-.47-1.11-1.04-1.39-1.71-.27-.67-.35-1.37-.24-2.1.12-.73.41-1.42.88-2.05.47-.64,1.04-1.12,1.71-1.45.67-.33,1.37-.47,2.1-.41.73.05,1.42.32,2.07.79.54.4.95.87,1.23,1.42s.38,1.08.31,1.57l.79-1.07,1.54,1.12-4.09,5.53c-.6.81-1.27,1.38-2.02,1.7-.75.32-1.51.42-2.29.29-.78-.13-1.52-.45-2.23-.96-.61-.45-1.11-.93-1.49-1.47ZM47.44,153.52c.68-.12,1.24-.48,1.7-1.1.28-.38.44-.78.49-1.22.04-.43-.02-.85-.2-1.26-.18-.41-.45-.74-.82-1.01-.57-.42-1.2-.57-1.87-.45-.68.12-1.23.47-1.67,1.06-.44.59-.61,1.22-.51,1.89.09.67.43,1.21,1,1.63.58.42,1.21.58,1.89.46Z"/>
        <path class="e" d="M58.02,153.21l-.61,1.12c.51-.27,1.04-.39,1.59-.37.55.02,1.09.18,1.63.47,1.01.55,1.57,1.25,1.67,2.1.1.84-.15,1.83-.75,2.94l-2.43,4.5-1.75-.96,2.31-4.28c.38-.7.54-1.27.5-1.72s-.38-.84-1-1.18c-.58-.32-1.17-.37-1.76-.17-.6.21-1.07.63-1.42,1.28l-2.22,4.1-1.75-.96,4.24-7.84,1.75.96Z"/>
        <path class="e" d="M68.18,158.26l-3.44,8.22-1.83-.8,3.44-8.22,1.83.8ZM67.11,156c-.12-.31-.12-.62,0-.93.13-.31.35-.53.66-.66.31-.13.61-.12.92.01.31.13.52.36.65.68.13.32.13.63,0,.94-.13.31-.35.52-.66.64-.31.12-.62.11-.93-.02-.31-.14-.52-.36-.65-.67Z"/>
        <path class="e" d="M73.24,160.26l-.37,1.22c.45-.36.94-.58,1.48-.65.54-.08,1.1-.02,1.68.17,1.09.36,1.77.96,2.04,1.77.27.82.21,1.83-.16,3.05l-1.5,4.89-1.9-.63,1.42-4.65c.23-.76.28-1.36.15-1.79-.13-.44-.53-.77-1.2-.99-.63-.21-1.21-.16-1.75.16-.54.31-.92.82-1.13,1.52l-1.37,4.46-1.9-.63,2.61-8.52,1.9.63Z"/>
        <path class="e" d="M82.64,174.59c-.58-.32-1.05-.71-1.4-1.16l.96-1.1c.28.36.65.66,1.1.9.45.24.91.41,1.38.5.91.17,1.64.04,2.21-.41s.92-1.14,1.06-2.06v-.07c-.26.38-.66.67-1.2.87-.54.2-1.18.23-1.91.09-.79-.15-1.46-.47-2.01-.96-.55-.49-.94-1.09-1.17-1.81-.23-.72-.29-1.47-.16-2.25.12-.78.4-1.47.84-2.06.44-.59.99-1.01,1.66-1.28.67-.26,1.39-.32,2.19-.17.66.13,1.24.38,1.74.76.5.38.83.82,1,1.3l.21-1.32,1.87.36-1.07,6.79c-.16,1-.49,1.8-1,2.42-.51.62-1.14,1.03-1.88,1.25-.75.22-1.55.25-2.41.08-.74-.14-1.4-.37-1.98-.7ZM87.4,170.12c.54-.4.87-.98.99-1.73.07-.46.03-.9-.13-1.32-.16-.42-.41-.77-.75-1.06-.34-.29-.74-.48-1.19-.57-.7-.13-1.31,0-1.86.4-.54.4-.87.96-.98,1.68-.11.72.02,1.37.41,1.94.39.57.93.92,1.63,1.05.71.13,1.33,0,1.87-.39Z"/>
        <path class="e" d="M101.19,174.16c-.63-.27-1.12-.56-1.46-.88l.69-1.64c.9.7,1.86,1.05,2.87,1.04.46,0,.86-.09,1.21-.26.35-.17.53-.4.52-.69,0-.25-.14-.44-.38-.57-.25-.13-.52-.24-.83-.32s-.51-.13-.61-.16c-.69-.19-1.26-.38-1.7-.57s-.8-.46-1.08-.79-.43-.79-.46-1.34c-.02-.55.13-1.03.44-1.44.32-.41.73-.72,1.23-.93.51-.21,1.03-.32,1.57-.33.62,0,1.18.07,1.67.21.49.15,1.01.38,1.55.68l-.68,1.62c-.8-.44-1.62-.66-2.46-.65-.35,0-.65.08-.92.22-.27.15-.39.33-.38.56,0,.28.14.47.39.58.25.11.64.22,1.17.33,1.02.21,1.84.53,2.48.96s.97,1.05,1,1.88c.03.65-.15,1.19-.52,1.62s-.84.74-1.41.94c-.57.2-1.16.3-1.76.31-.82,0-1.54-.13-2.17-.39Z"/>
        <path class="e" d="M109.81,163.51c-.26-.21-.42-.48-.46-.81-.04-.33.04-.63.24-.89.2-.26.47-.41.81-.44.33-.03.64.06.91.27.27.21.43.49.47.82.04.33-.04.63-.25.88-.21.26-.48.4-.82.44-.33.04-.63-.05-.89-.26ZM111.87,164.95l1.13,8.84-1.99.2-1.13-8.84,1.99-.2Z"/>
        <path class="e" d="M117.4,164.15l.29,1.25c.21-.54.53-.97.95-1.32.43-.34.94-.58,1.54-.7,1.13-.24,2.01-.07,2.65.5.64.57,1.1,1.47,1.38,2.71l1.15,4.98-1.95.42-1.09-4.74c-.18-.77-.43-1.31-.76-1.62-.33-.31-.84-.39-1.53-.25-.65.14-1.12.48-1.44,1.02-.31.54-.38,1.17-.22,1.89l1.05,4.54-1.95.42-2-8.68,1.96-.42Z"/>
        <path class="e" d="M131.77,169.06c-.82-.13-1.56-.45-2.2-.97-.64-.52-1.11-1.17-1.41-1.97-.3-.8-.38-1.6-.23-2.41.15-.81.49-1.53,1.02-2.17.54-.64,1.21-1.11,2.02-1.41.56-.21,1.13-.31,1.71-.32.58,0,1.14.09,1.68.29l-.67,1.76c-.59-.24-1.26-.22-2.02.06-.74.28-1.27.74-1.57,1.4-.3.66-.32,1.36-.04,2.1.27.73.74,1.25,1.4,1.55.66.3,1.38.3,2.17.01.39-.15.75-.35,1.06-.61.31-.26.55-.55.71-.87l1.56,1.04c-.29.5-.67.96-1.14,1.35-.47.4-1.01.71-1.6.93-.81.3-1.63.38-2.45.26Z"/>
        <path class="e" d="M142.74,164.4c-.82.02-1.58-.17-2.29-.57-.71-.4-1.29-1.03-1.73-1.86-.39-.74-.58-1.52-.57-2.35.02-.82.24-1.58.66-2.29.42-.7,1.01-1.26,1.75-1.66.68-.37,1.41-.54,2.18-.48.77.05,1.49.3,2.15.73.67.44,1.19,1.01,1.58,1.73.09.17.16.32.22.45.05.13.09.21.1.26l-5.92,3.23c.45.54.98.85,1.6.94.62.09,1.23-.03,1.85-.36.4-.22.77-.49,1.09-.82.33-.33.59-.69.79-1.09l1.39.92c-.28.55-.63,1.04-1.06,1.48-.43.44-.9.8-1.41,1.08-.76.41-1.55.63-2.36.65ZM142.98,157c-.58-.12-1.15-.04-1.7.26-.51.28-.87.7-1.08,1.26-.22.56-.23,1.16-.05,1.78l4.28-2.34c-.38-.52-.87-.84-1.45-.96Z"/>
        <path class="e" d="M156.97,149.83c.12-1.13.14-2.04.05-2.73-.08-.69-.28-1.23-.6-1.62-.34-.41-.75-.63-1.23-.67-.49-.04-.96.14-1.44.55-.65.56-1.04,1.49-1.2,2.79l-1.64-.29c.03-.95.22-1.75.58-2.4.36-.66.77-1.19,1.23-1.59.58-.5,1.19-.84,1.82-1.01.63-.17,1.24-.16,1.83.03.59.19,1.11.55,1.55,1.09.69.83,1.03,2.01,1.03,3.52,0,1.52-.2,3.11-.59,4.78l4.02-3.47,1.15,1.39-6.38,5.5-.84-1.01c.32-2.1.54-3.71.66-4.84Z"/>
        <path class="e" d="M167.94,144.84c-.83.17-1.72.1-2.64-.23-.93-.33-1.82-.88-2.69-1.67-.86-.78-1.5-1.63-1.92-2.53-.42-.9-.59-1.78-.51-2.64.08-.86.41-1.62,1-2.29.58-.66,1.29-1.07,2.12-1.24.83-.17,1.71-.1,2.64.23.93.33,1.82.88,2.68,1.66.86.78,1.5,1.63,1.92,2.53.42.9.59,1.78.51,2.64s-.41,1.62-.99,2.27c-.59.67-1.3,1.08-2.13,1.26ZM169.06,140.26c-.29-.84-.9-1.68-1.83-2.53-.93-.85-1.83-1.37-2.68-1.58s-1.53-.02-2.03.55c-.5.57-.61,1.27-.32,2.12.29.84.9,1.69,1.83,2.54.93.85,1.83,1.37,2.69,1.57.86.2,1.54.01,2.04-.55.5-.57.61-1.27.32-2.11Z"/>
        <path class="e" d="M170.16,131.59l-1.71-.05-.27-4.69,1.03-1.46,9.57,6.67-1.15,1.63-7.43-5.18-.04,3.06Z"/>
        <path class="e" d="M182.6,125.5c-.48.45-.97.78-1.47.99l-1.02-1.44c.38-.18.77-.46,1.19-.84.41-.38.74-.79.97-1.24.37-.71.47-1.37.31-1.96-.17-.59-.51-1.03-1.03-1.3-.61-.32-1.2-.33-1.77-.05-.57.28-1.04.78-1.41,1.5-.34.66-.49,1.42-.44,2.29l-1,.4-5.08-2.63,3.36-6.49,1.6.83-2.44,4.71,2.25,1.17c.09-.56.26-1.08.5-1.56.38-.72.85-1.31,1.41-1.75.57-.44,1.19-.7,1.87-.77s1.36.08,2.05.44c.68.35,1.2.84,1.57,1.45.37.61.54,1.31.52,2.09-.02.78-.24,1.59-.68,2.42-.37.71-.79,1.3-1.27,1.75Z"/>
      </g>
    </g>
  </g>
</svg>